# xmcd
#
# Track frame offsets:
#	150
#	27865
#	47909
#	68336
#	86922
#	101670
#	120151
#	139196
#	155291
#	174851
#
# Disc length: 2539 seconds
#
# Revision: 0
# Processed by: cddbd v1.4PL0 Copyright (c) Steve Scherf et al.
# Submitted via: EasyCDDAExtractor 4.5.2.1
#
DISCID=7409e90a
DTITLE=Tran Hai Mi - Bong Bien
DYEAR=1900
DGENRE=
TTITLE0=Trai Cam
TTITLE1=Bong bien
TTITLE2=Noi Nho Diu Em
TTITLE3=Yeu Het Con Tim
TTITLE4=Ao Mong Tinh Yeu
TTITLE5=Yeu Nhau Bon Mua
TTITLE6=Noi Ay Binh Yen
TTITLE7=Ting Co
TTITLE8=Khong Con Ai Yeu Anh
TTITLE9=Chiec La Vo Tinh
EXTD=
EXTT0=
EXTT1=
EXTT2=
EXTT3=
EXTT4=
EXTT5=
EXTT6=
EXTT7=
EXTT8=
EXTT9=
PLAYORDER=
